<mxfile host="app.diagrams.net" agent="Mozilla/5.0 (Windows NT 10.0; Win64; x64) AppleWebKit/537.36 (KHTML, like Gecko) Chrome/139.0.0.0 Safari/537.36" version="28.2.0">
  <diagram name="PÃ¡gina-1" id="Q3KTrH_Cg-qdvFPdpqpn">
    <mxGraphModel dx="1148" dy="525" grid="1" gridSize="10" guides="1" tooltips="1" connect="1" arrows="1" fold="1" page="1" pageScale="1" pageWidth="827" pageHeight="1169" math="0" shadow="0">
      <root>
        <mxCell id="0" />
        <mxCell id="1" parent="0" />
        <mxCell id="rQs6UbDkeaH8BetyPs_s-1" value="" style="rounded=0;whiteSpace=wrap;html=1;" vertex="1" parent="1">
          <mxGeometry width="1200" height="1020" as="geometry" />
        </mxCell>
        <mxCell id="rQs6UbDkeaH8BetyPs_s-2" value="Eleitor" style="swimlane;fontStyle=1;align=center;verticalAlign=top;childLayout=stackLayout;horizontal=1;startSize=26;horizontalStack=0;resizeParent=1;resizeParentMax=0;resizeLast=0;collapsible=1;marginBottom=0;whiteSpace=wrap;html=1;" vertex="1" parent="1">
          <mxGeometry x="440" y="60" width="200" height="200" as="geometry" />
        </mxCell>
        <mxCell id="rQs6UbDkeaH8BetyPs_s-3" value="+ NumeroDocumentoEleitor: string;&lt;div&gt;+ NomeEleitor: string;&lt;/div&gt;&lt;div&gt;+ FotoEleitor: string | null;&lt;/div&gt;&lt;div&gt;+ JaVotou: boolean&lt;/div&gt;" style="text;strokeColor=none;fillColor=none;align=left;verticalAlign=top;spacingLeft=4;spacingRight=4;overflow=hidden;rotatable=0;points=[[0,0.5],[1,0.5]];portConstraint=eastwest;whiteSpace=wrap;html=1;" vertex="1" parent="rQs6UbDkeaH8BetyPs_s-2">
          <mxGeometry y="26" width="200" height="114" as="geometry" />
        </mxCell>
        <mxCell id="rQs6UbDkeaH8BetyPs_s-4" value="" style="line;strokeWidth=1;fillColor=none;align=left;verticalAlign=middle;spacingTop=-1;spacingLeft=3;spacingRight=3;rotatable=0;labelPosition=right;points=[];portConstraint=eastwest;strokeColor=inherit;" vertex="1" parent="rQs6UbDkeaH8BetyPs_s-2">
          <mxGeometry y="140" width="200" height="8" as="geometry" />
        </mxCell>
        <mxCell id="rQs6UbDkeaH8BetyPs_s-5" value="+ validarDocumento()&lt;div&gt;+ votar()&lt;/div&gt;" style="text;strokeColor=none;fillColor=none;align=left;verticalAlign=top;spacingLeft=4;spacingRight=4;overflow=hidden;rotatable=0;points=[[0,0.5],[1,0.5]];portConstraint=eastwest;whiteSpace=wrap;html=1;" vertex="1" parent="rQs6UbDkeaH8BetyPs_s-2">
          <mxGeometry y="148" width="200" height="52" as="geometry" />
        </mxCell>
        <mxCell id="rQs6UbDkeaH8BetyPs_s-6" value="UEv" style="swimlane;fontStyle=1;align=center;verticalAlign=top;childLayout=stackLayout;horizontal=1;startSize=26;horizontalStack=0;resizeParent=1;resizeParentMax=0;resizeLast=0;collapsible=1;marginBottom=0;whiteSpace=wrap;html=1;" vertex="1" parent="1">
          <mxGeometry x="770" y="310" width="240" height="180" as="geometry" />
        </mxCell>
        <mxCell id="rQs6UbDkeaH8BetyPs_s-7" value="+ Id: Guid&lt;div&gt;+ Votos: List&amp;lt;Votos&amp;gt;&lt;br&gt;&lt;div&gt;+ StatusValidacao: EnumStatusValidacao&lt;/div&gt;&lt;/div&gt;&lt;div&gt;&lt;br&gt;&lt;/div&gt;" style="text;strokeColor=none;fillColor=none;align=left;verticalAlign=top;spacingLeft=4;spacingRight=4;overflow=hidden;rotatable=0;points=[[0,0.5],[1,0.5]];portConstraint=eastwest;whiteSpace=wrap;html=1;" vertex="1" parent="rQs6UbDkeaH8BetyPs_s-6">
          <mxGeometry y="26" width="240" height="114" as="geometry" />
        </mxCell>
        <mxCell id="rQs6UbDkeaH8BetyPs_s-8" value="" style="line;strokeWidth=1;fillColor=none;align=left;verticalAlign=middle;spacingTop=-1;spacingLeft=3;spacingRight=3;rotatable=0;labelPosition=right;points=[];portConstraint=eastwest;strokeColor=inherit;" vertex="1" parent="rQs6UbDkeaH8BetyPs_s-6">
          <mxGeometry y="140" width="240" height="8" as="geometry" />
        </mxCell>
        <mxCell id="rQs6UbDkeaH8BetyPs_s-9" value="+&amp;nbsp;receberVoto()" style="text;strokeColor=none;fillColor=none;align=left;verticalAlign=top;spacingLeft=4;spacingRight=4;overflow=hidden;rotatable=0;points=[[0,0.5],[1,0.5]];portConstraint=eastwest;whiteSpace=wrap;html=1;" vertex="1" parent="rQs6UbDkeaH8BetyPs_s-6">
          <mxGeometry y="148" width="240" height="32" as="geometry" />
        </mxCell>
        <mxCell id="rQs6UbDkeaH8BetyPs_s-10" value="" style="rounded=0;orthogonalLoop=1;jettySize=auto;html=1;entryX=0.5;entryY=0;entryDx=0;entryDy=0;endArrow=none;endFill=0;" edge="1" parent="1" source="rQs6UbDkeaH8BetyPs_s-11" target="rQs6UbDkeaH8BetyPs_s-29">
          <mxGeometry relative="1" as="geometry" />
        </mxCell>
        <mxCell id="rQs6UbDkeaH8BetyPs_s-11" value="Voto" style="swimlane;fontStyle=1;align=center;verticalAlign=top;childLayout=stackLayout;horizontal=1;startSize=26;horizontalStack=0;resizeParent=1;resizeParentMax=0;resizeLast=0;collapsible=1;marginBottom=0;whiteSpace=wrap;html=1;" vertex="1" parent="1">
          <mxGeometry x="440" y="326" width="200" height="170" as="geometry" />
        </mxCell>
        <mxCell id="rQs6UbDkeaH8BetyPs_s-12" value="+ Id: Guid&lt;div&gt;+ NumeroDocumentoEleitor:string;&lt;/div&gt;&lt;div&gt;+ IdCandidato: Guid&lt;/div&gt;&lt;div&gt;+ TipoDeVoto: EnumTipoDeVoto&lt;/div&gt;" style="text;strokeColor=none;fillColor=none;align=left;verticalAlign=top;spacingLeft=4;spacingRight=4;overflow=hidden;rotatable=0;points=[[0,0.5],[1,0.5]];portConstraint=eastwest;whiteSpace=wrap;html=1;" vertex="1" parent="rQs6UbDkeaH8BetyPs_s-11">
          <mxGeometry y="26" width="200" height="114" as="geometry" />
        </mxCell>
        <mxCell id="rQs6UbDkeaH8BetyPs_s-13" value="" style="line;strokeWidth=1;fillColor=none;align=left;verticalAlign=middle;spacingTop=-1;spacingLeft=3;spacingRight=3;rotatable=0;labelPosition=right;points=[];portConstraint=eastwest;strokeColor=inherit;" vertex="1" parent="rQs6UbDkeaH8BetyPs_s-11">
          <mxGeometry y="140" width="200" height="8" as="geometry" />
        </mxCell>
        <mxCell id="rQs6UbDkeaH8BetyPs_s-14" value="+ confirmarVoto()" style="text;strokeColor=none;fillColor=none;align=left;verticalAlign=top;spacingLeft=4;spacingRight=4;overflow=hidden;rotatable=0;points=[[0,0.5],[1,0.5]];portConstraint=eastwest;whiteSpace=wrap;html=1;" vertex="1" parent="rQs6UbDkeaH8BetyPs_s-11">
          <mxGeometry y="148" width="200" height="22" as="geometry" />
        </mxCell>
        <mxCell id="rQs6UbDkeaH8BetyPs_s-15" value="" style="endArrow=none;html=1;rounded=0;" edge="1" parent="1" source="rQs6UbDkeaH8BetyPs_s-11">
          <mxGeometry width="50" height="50" relative="1" as="geometry">
            <mxPoint x="530" y="374" as="sourcePoint" />
            <mxPoint x="540" y="264" as="targetPoint" />
          </mxGeometry>
        </mxCell>
        <mxCell id="rQs6UbDkeaH8BetyPs_s-16" value="suporta" style="text;html=1;align=center;verticalAlign=middle;resizable=0;points=[];autosize=1;strokeColor=none;fillColor=none;" vertex="1" parent="1">
          <mxGeometry x="890" y="264" width="60" height="30" as="geometry" />
        </mxCell>
        <mxCell id="rQs6UbDkeaH8BetyPs_s-17" style="rounded=0;orthogonalLoop=1;jettySize=auto;html=1;entryX=1.005;entryY=0.395;entryDx=0;entryDy=0;entryPerimeter=0;endArrow=none;endFill=0;" edge="1" parent="1" source="rQs6UbDkeaH8BetyPs_s-6" target="rQs6UbDkeaH8BetyPs_s-12">
          <mxGeometry relative="1" as="geometry" />
        </mxCell>
        <mxCell id="rQs6UbDkeaH8BetyPs_s-18" value="recebe" style="text;html=1;align=center;verticalAlign=middle;resizable=0;points=[];autosize=1;strokeColor=none;fillColor=none;" vertex="1" parent="1">
          <mxGeometry x="670" y="368" width="60" height="30" as="geometry" />
        </mxCell>
        <mxCell id="rQs6UbDkeaH8BetyPs_s-19" style="edgeStyle=orthogonalEdgeStyle;rounded=0;orthogonalLoop=1;jettySize=auto;html=1;entryX=0;entryY=0.5;entryDx=0;entryDy=0;strokeColor=default;curved=0;endArrow=none;endFill=0;" edge="1" parent="1" source="rQs6UbDkeaH8BetyPs_s-20" target="rQs6UbDkeaH8BetyPs_s-12">
          <mxGeometry relative="1" as="geometry" />
        </mxCell>
        <mxCell id="rQs6UbDkeaH8BetyPs_s-20" value="&lt;span style=&quot;font-weight: 700;&quot;&gt;EnumTipoDeVoto&lt;/span&gt;" style="swimlane;fontStyle=0;childLayout=stackLayout;horizontal=1;startSize=26;fillColor=none;horizontalStack=0;resizeParent=1;resizeParentMax=0;resizeLast=0;collapsible=1;marginBottom=0;whiteSpace=wrap;html=1;" vertex="1" parent="1">
          <mxGeometry x="150" y="288" width="140" height="80" as="geometry" />
        </mxCell>
        <mxCell id="rQs6UbDkeaH8BetyPs_s-21" value="&lt;div&gt;- Valido&lt;/div&gt;- Branco&lt;div&gt;- Nulo&lt;/div&gt;" style="text;strokeColor=none;fillColor=none;align=left;verticalAlign=top;spacingLeft=4;spacingRight=4;overflow=hidden;rotatable=0;points=[[0,0.5],[1,0.5]];portConstraint=eastwest;whiteSpace=wrap;html=1;" vertex="1" parent="rQs6UbDkeaH8BetyPs_s-20">
          <mxGeometry y="26" width="140" height="54" as="geometry" />
        </mxCell>
        <mxCell id="rQs6UbDkeaH8BetyPs_s-22" value="UEg" style="swimlane;fontStyle=1;align=center;verticalAlign=top;childLayout=stackLayout;horizontal=1;startSize=26;horizontalStack=0;resizeParent=1;resizeParentMax=0;resizeLast=0;collapsible=1;marginBottom=0;whiteSpace=wrap;html=1;" vertex="1" parent="1">
          <mxGeometry x="770" y="60" width="240" height="200" as="geometry" />
        </mxCell>
        <mxCell id="rQs6UbDkeaH8BetyPs_s-23" value="&lt;div&gt;+ Id: Guid&lt;div&gt;+ UEv: List&amp;lt;UEv&amp;gt;&lt;br&gt;&lt;div&gt;+ StatusValidacao: EnumStatusValidacao&lt;/div&gt;&lt;/div&gt;&lt;/div&gt;" style="text;strokeColor=none;fillColor=none;align=left;verticalAlign=top;spacingLeft=4;spacingRight=4;overflow=hidden;rotatable=0;points=[[0,0.5],[1,0.5]];portConstraint=eastwest;whiteSpace=wrap;html=1;" vertex="1" parent="rQs6UbDkeaH8BetyPs_s-22">
          <mxGeometry y="26" width="240" height="114" as="geometry" />
        </mxCell>
        <mxCell id="rQs6UbDkeaH8BetyPs_s-24" value="" style="line;strokeWidth=1;fillColor=none;align=left;verticalAlign=middle;spacingTop=-1;spacingLeft=3;spacingRight=3;rotatable=0;labelPosition=right;points=[];portConstraint=eastwest;strokeColor=inherit;" vertex="1" parent="rQs6UbDkeaH8BetyPs_s-22">
          <mxGeometry y="140" width="240" height="8" as="geometry" />
        </mxCell>
        <mxCell id="rQs6UbDkeaH8BetyPs_s-25" value="+ validarUEv()&lt;div&gt;+&amp;nbsp;consolidarResultados()&lt;/div&gt;&lt;div&gt;+ criacaoUEv()&lt;/div&gt;" style="text;strokeColor=none;fillColor=none;align=left;verticalAlign=top;spacingLeft=4;spacingRight=4;overflow=hidden;rotatable=0;points=[[0,0.5],[1,0.5]];portConstraint=eastwest;whiteSpace=wrap;html=1;" vertex="1" parent="rQs6UbDkeaH8BetyPs_s-22">
          <mxGeometry y="148" width="240" height="52" as="geometry" />
        </mxCell>
        <mxCell id="rQs6UbDkeaH8BetyPs_s-26" style="rounded=0;orthogonalLoop=1;jettySize=auto;html=1;entryX=0.023;entryY=-0.092;entryDx=0;entryDy=0;entryPerimeter=0;endArrow=none;endFill=0;" edge="1" parent="1" source="rQs6UbDkeaH8BetyPs_s-6" target="rQs6UbDkeaH8BetyPs_s-16">
          <mxGeometry relative="1" as="geometry" />
        </mxCell>
        <mxCell id="rQs6UbDkeaH8BetyPs_s-27" value="emite" style="text;html=1;align=center;verticalAlign=middle;resizable=0;points=[];autosize=1;strokeColor=none;fillColor=none;" vertex="1" parent="1">
          <mxGeometry x="540" y="280" width="50" height="30" as="geometry" />
        </mxCell>
        <mxCell id="rQs6UbDkeaH8BetyPs_s-28" value="destina" style="text;html=1;align=center;verticalAlign=middle;resizable=0;points=[];autosize=1;strokeColor=none;fillColor=none;" vertex="1" parent="1">
          <mxGeometry x="540" y="540" width="60" height="30" as="geometry" />
        </mxCell>
        <mxCell id="rQs6UbDkeaH8BetyPs_s-29" value="Candidato" style="swimlane;fontStyle=1;align=center;verticalAlign=top;childLayout=stackLayout;horizontal=1;startSize=26;horizontalStack=0;resizeParent=1;resizeParentMax=0;resizeLast=0;collapsible=1;marginBottom=0;whiteSpace=wrap;html=1;" vertex="1" parent="1">
          <mxGeometry x="440" y="590" width="200" height="230" as="geometry" />
        </mxCell>
        <mxCell id="rQs6UbDkeaH8BetyPs_s-30" value="+ Id: Guid&lt;div&gt;+ Cargo&lt;span style=&quot;background-color: transparent; color: light-dark(rgb(0, 0, 0), rgb(255, 255, 255));&quot;&gt;Candidato&lt;/span&gt;&lt;span style=&quot;background-color: transparent; color: light-dark(rgb(0, 0, 0), rgb(255, 255, 255));&quot;&gt;: string&lt;/span&gt;&lt;/div&gt;&lt;div&gt;+ Nome&lt;span style=&quot;background-color: transparent; color: light-dark(rgb(0, 0, 0), rgb(255, 255, 255));&quot;&gt;Candidato&lt;/span&gt;&lt;span style=&quot;background-color: transparent; color: light-dark(rgb(0, 0, 0), rgb(255, 255, 255));&quot;&gt;: string&lt;/span&gt;&lt;/div&gt;&lt;div&gt;+ Apelido&lt;span style=&quot;background-color: transparent; color: light-dark(rgb(0, 0, 0), rgb(255, 255, 255));&quot;&gt;Candidato&lt;/span&gt;&lt;span style=&quot;background-color: transparent; color: light-dark(rgb(0, 0, 0), rgb(255, 255, 255));&quot;&gt;: string&lt;/span&gt;&lt;/div&gt;&lt;div&gt;+ Numero&lt;span style=&quot;background-color: transparent; color: light-dark(rgb(0, 0, 0), rgb(255, 255, 255));&quot;&gt;Candidato&lt;/span&gt;&lt;span style=&quot;background-color: transparent; color: light-dark(rgb(0, 0, 0), rgb(255, 255, 255));&quot;&gt;: int&lt;/span&gt;&lt;/div&gt;&lt;div&gt;+ FotoCandidato: string&lt;/div&gt;" style="text;strokeColor=none;fillColor=none;align=left;verticalAlign=top;spacingLeft=4;spacingRight=4;overflow=hidden;rotatable=0;points=[[0,0.5],[1,0.5]];portConstraint=eastwest;whiteSpace=wrap;html=1;" vertex="1" parent="rQs6UbDkeaH8BetyPs_s-29">
          <mxGeometry y="26" width="200" height="144" as="geometry" />
        </mxCell>
        <mxCell id="rQs6UbDkeaH8BetyPs_s-31" value="" style="line;strokeWidth=1;fillColor=none;align=left;verticalAlign=middle;spacingTop=-1;spacingLeft=3;spacingRight=3;rotatable=0;labelPosition=right;points=[];portConstraint=eastwest;strokeColor=inherit;" vertex="1" parent="rQs6UbDkeaH8BetyPs_s-29">
          <mxGeometry y="170" width="200" height="8" as="geometry" />
        </mxCell>
        <mxCell id="rQs6UbDkeaH8BetyPs_s-32" value="+ validarCandidato()" style="text;strokeColor=none;fillColor=none;align=left;verticalAlign=top;spacingLeft=4;spacingRight=4;overflow=hidden;rotatable=0;points=[[0,0.5],[1,0.5]];portConstraint=eastwest;whiteSpace=wrap;html=1;" vertex="1" parent="rQs6UbDkeaH8BetyPs_s-29">
          <mxGeometry y="178" width="200" height="52" as="geometry" />
        </mxCell>
      </root>
    </mxGraphModel>
  </diagram>
</mxfile>
